<svg width="27" height="27" viewBox="0 0 27 27" fill="none" xmlns="http://www.w3.org/2000/svg">
<path d="M22.1137 14.3738C22.1137 19.9021 18.2438 22.6663 13.6442 24.2696C13.4033 24.3512 13.1417 24.3473 12.9034 24.2585C8.29272 22.6663 4.42285 19.9021 4.42285 14.3738V6.63402C4.42285 6.34078 4.53934 6.05954 4.7467 5.85219C4.95405 5.64484 5.23528 5.52834 5.52853 5.52834C7.73988 5.52834 10.5041 4.20153 12.428 2.5209C12.6622 2.32077 12.9602 2.21082 13.2683 2.21082C13.5764 2.21082 13.8743 2.32077 14.1086 2.5209C16.0435 4.21259 18.7967 5.52834 21.008 5.52834C21.3013 5.52834 21.5825 5.64484 21.7898 5.85219C21.9972 6.05954 22.1137 6.34078 22.1137 6.63402V14.3738Z" stroke="#51A2FF" stroke-width="2.21135" stroke-linecap="round" stroke-linejoin="round"/>
</svg>
