<svg width="3023" height="3347" viewBox="0 0 3023 3347" fill="none" xmlns="http://www.w3.org/2000/svg">
<g filter="url(#filter0_d_318_2)">
<path d="M1793.88 2770C1889.84 2951.43 2046.44 3078.96 2216.14 3186.81" stroke="white" stroke-width="320" stroke-linecap="round"/>
</g>
<circle cx="1412" cy="1797" r="1312" fill="white" stroke="#1E1E1E" stroke-width="200"/>
<circle cx="977" cy="1028" r="214" fill="#1E1E1E"/>
<path d="M763 1349C763 1408.09 715.094 1456 656 1456C596.906 1456 549 1408.09 549 1349C549 1289.91 596.906 1242 656 1242C715.094 1242 763 1289.91 763 1349Z" fill="#1E1E1E"/>
<g filter="url(#filter1_d_318_2)">
<path d="M244.203 2879.24C1384.7 2596.74 1998.76 1084.76 2089.34 777.139C2156.44 549.241 2219.54 297.506 2014.88 190.63C1832.6 95.4438 1644.85 241.921 1555.94 403.241" stroke="white" stroke-width="320" stroke-linecap="round"/>
</g>
<path fill-rule="evenodd" clip-rule="evenodd" d="M1822 462.177C1692.36 422.404 1554.68 401 1412 401C1336.8 401 1262.98 406.947 1191 418.395V605.101C1262.66 591.899 1336.52 585 1412 585C1555.9 585 1693.95 610.079 1822 656.104V462.177Z" fill="#1E1E1E"/>
<circle cx="2883" cy="337" r="140" fill="white"/>
<path fill-rule="evenodd" clip-rule="evenodd" d="M1972.77 500.488C1854.42 449.563 1726.86 413.998 1592.38 396.681C1523.09 387.76 1454.36 383.989 1386.58 385.067L1363.45 564.719C1431.14 562.131 1500.02 565.109 1569.54 574.061C1705.1 591.517 1832.56 630.329 1948.81 686.576L1972.77 500.488Z" fill="#1E1E1E"/>
<defs>
<filter id="filter0_d_318_2" x="1633.85" y="2609.97" width="942.315" height="736.864" filterUnits="userSpaceOnUse" color-interpolation-filters="sRGB">
<feFlood flood-opacity="0" result="BackgroundImageFix"/>
<feColorMatrix in="SourceAlpha" type="matrix" values="0 0 0 0 0 0 0 0 0 0 0 0 0 0 0 0 0 0 127 0" result="hardAlpha"/>
<feOffset dx="200"/>
<feComposite in2="hardAlpha" operator="out"/>
<feColorMatrix type="matrix" values="0 0 0 0 0.117647 0 0 0 0 0.117647 0 0 0 0 0.117647 0 0 0 1 0"/>
<feBlend mode="normal" in2="BackgroundImageFix" result="effect1_dropShadow_318_2"/>
<feBlend mode="normal" in="SourceGraphic" in2="effect1_dropShadow_318_2" result="shape"/>
</filter>
<filter id="filter1_d_318_2" x="84.166" y="0.43457" width="2429.89" height="3088.84" filterUnits="userSpaceOnUse" color-interpolation-filters="sRGB">
<feFlood flood-opacity="0" result="BackgroundImageFix"/>
<feColorMatrix in="SourceAlpha" type="matrix" values="0 0 0 0 0 0 0 0 0 0 0 0 0 0 0 0 0 0 127 0" result="hardAlpha"/>
<feOffset dx="200" dy="50"/>
<feComposite in2="hardAlpha" operator="out"/>
<feColorMatrix type="matrix" values="0 0 0 0 0.117647 0 0 0 0 0.117647 0 0 0 0 0.117647 0 0 0 1 0"/>
<feBlend mode="normal" in2="BackgroundImageFix" result="effect1_dropShadow_318_2"/>
<feBlend mode="normal" in="SourceGraphic" in2="effect1_dropShadow_318_2" result="shape"/>
</filter>
</defs>
</svg>
