<svg width="24" height="24" viewBox="0 0 24 24" fill="none" xmlns="http://www.w3.org/2000/svg">
<path d="M21.4198 10.9219C21.5988 10.8429 21.7507 10.7131 21.8567 10.5487C21.9627 10.3842 22.0181 10.1923 22.0161 9.99661C22.0141 9.80095 21.9547 9.61019 21.8454 9.44795C21.736 9.28571 21.5814 9.15912 21.4008 9.08387L12.8298 5.17987C12.5692 5.06102 12.2862 4.99951 11.9998 4.99951C11.7134 4.99951 11.4304 5.06102 11.1698 5.17987L2.5998 9.07987C2.42177 9.15784 2.27031 9.286 2.16396 9.44868C2.05761 9.61136 2.00098 9.80151 2.00098 9.99587C2.00098 10.1902 2.05761 10.3804 2.16396 10.5431C2.27031 10.7057 2.42177 10.8339 2.5998 10.9119L11.1698 14.8199C11.4304 14.9387 11.7134 15.0002 11.9998 15.0002C12.2862 15.0002 12.5692 14.9387 12.8298 14.8199L21.4198 10.9219Z" stroke="#FB64B6" stroke-width="2" stroke-linecap="round" stroke-linejoin="round"/>
<path d="M22 10V16" stroke="#FB64B6" stroke-width="2" stroke-linecap="round" stroke-linejoin="round"/>
<path d="M6 12.5V16C6 16.7956 6.63214 17.5587 7.75736 18.1213C8.88258 18.6839 10.4087 19 12 19C13.5913 19 15.1174 18.6839 16.2426 18.1213C17.3679 17.5587 18 16.7956 18 16V12.5" stroke="#FB64B6" stroke-width="2" stroke-linecap="round" stroke-linejoin="round"/>
</svg>
