<svg width="18" height="18" viewBox="0 0 18 18" fill="none" xmlns="http://www.w3.org/2000/svg">
<path d="M13.5 3.75C13.8978 3.75 14.2793 3.90804 14.5606 4.18934C14.8419 4.47064 15 4.85218 15 5.25V11.6445C14.9999 11.8781 15.0543 12.1084 15.159 12.3173L15.96 13.9125C16.0178 14.0272 16.0452 14.1549 16.0395 14.2833C16.0338 14.4116 15.9952 14.5364 15.9274 14.6455C15.8597 14.7547 15.765 14.8446 15.6525 14.9067C15.54 14.9688 15.4134 15.0009 15.285 15H2.71495C2.58647 15.0009 2.45991 14.9688 2.34741 14.9067C2.23491 14.8446 2.14025 14.7547 2.07249 14.6455C2.00473 14.5364 1.96615 14.4116 1.96045 14.2833C1.95476 14.1549 1.98213 14.0272 2.03995 13.9125L2.84095 12.3173C2.94561 12.1084 3.00006 11.8781 2.99995 11.6445V5.25C2.99995 4.85218 3.15799 4.47064 3.43929 4.18934C3.7206 3.90804 4.10213 3.75 4.49995 3.75H13.5Z" stroke="#FB64B6" stroke-width="1.5" stroke-linecap="round" stroke-linejoin="round"/>
<path d="M15.0405 11.9902H2.95947" stroke="#FB64B6" stroke-width="1.5" stroke-linecap="round" stroke-linejoin="round"/>
</svg>
